<svg id="Layer_1" data-name="Layer 1" xmlns="http://www.w3.org/2000/svg" xmlns:xlink="http://www.w3.org/1999/xlink" viewBox="0 0 17 13"><defs><style>.cls-1{fill:#cb4c45;fill-rule:evenodd;}</style><symbol id="letter" data-name="letter" viewBox="0 0 16 11.96"><path class="cls-1" d="M15,1.83l0,0L8,7.53,1.07,1.86l0,0V1.55A.52.52,0,0,1,1.55,1h12.9a.52.52,0,0,1,.52.52ZM15,9.4,11.53,6,15,3.16Zm-.52,1.53H1.55a.49.49,0,0,1-.39-.2l4.1-4.1,2.39,2,.08,0,0,0a.48.48,0,0,0,.2,0H8a.41.41,0,0,0,.19,0l.06,0s0,0,.08,0l2.42-2,4.11,4.11a.49.49,0,0,1-.39.2ZM1,3.16,4.46,6,1,9.4ZM14.45,0H1.55A1.56,1.56,0,0,0,0,1.55v8.86A1.56,1.56,0,0,0,1.55,12h12.9A1.56,1.56,0,0,0,16,10.41V1.55A1.56,1.56,0,0,0,14.45,0Z"/></symbol></defs><title>letter_icon</title><use width="16" height="11.96" transform="translate(0.5 0.52)" xlink:href="#letter"/></svg>