<svg id="Layer_1" data-name="Layer 1" xmlns="http://www.w3.org/2000/svg" viewBox="0 0 16 17"><defs><style>.cls-1{fill:none;stroke:#cb4c45;stroke-linecap:round;stroke-linejoin:round;}</style></defs><title>phone_icon</title><path class="cls-1" d="M3.05,9C1.71,7.15.67,5.14.77,3.33A1.07,1.07,0,0,1,.83,3,3.52,3.52,0,0,1,2.1,1.59,3.46,3.46,0,0,1,4.18.88,2.07,2.07,0,0,1,4.73,1l.16.11a15.29,15.29,0,0,1,.93,1.46c.42.72.85,1.49,1,1.78.29.68-.33,1.59-.72,2.17-.11.17-.17.18-.14.28A15.53,15.53,0,0,0,7.62,8.84c.79.87,1.55,1.69,1.72,1.83l.33-.17a3.4,3.4,0,0,1,1.85-.59l.06,0A17.43,17.43,0,0,1,14,11.5c.65.51,1.17,1,1.23,1.38V13a4.16,4.16,0,0,1-1.11,2,3,3,0,0,1-1.93,1.2,6,6,0,0,1-2.81-1A18.16,18.16,0,0,1,7.06,13.4H7A37.22,37.22,0,0,1,3.05,9Z"/></svg>